<svg xmlns="http://www.w3.org/2000/svg" xmlns:xlink="http://www.w3.org/1999/xlink" viewBox="0 0 127.91 127.91"><defs><style>.cls-1,.cls-10{fill:none;}.cls-2{clip-path:url(#clip-path);}.cls-3{fill:#66b6dd;}.cls-4{fill:#f8b819;}.cls-5{fill:#97c00e;}.cls-6{fill:#603813;}.cls-7{fill:#fff;}.cls-10,.cls-7{stroke:#000;stroke-miterlimit:10;stroke-width:1.28px;}.cls-8{fill:#666;}.cls-9{fill:#1a1a1a;}</style><clipPath id="clip-path"><circle class="cls-1" cx="63.96" cy="63.96" r="62.6"/></clipPath></defs><title>Iconen BRO Grondwatermeetnet (CC BY-ND 4.0)</title><g id="Monitoringsput"><g class="cls-2"><circle class="cls-3" cx="63.96" cy="63.96" r="62.6"/><rect class="cls-4" x="-2.92" y="46.48" width="132.38" height="83.1"/><rect class="cls-5" x="-2.92" y="46.48" width="132.38" height="4.42"/><rect class="cls-6" x="-2.92" y="50.9" width="132.38" height="11.99"/><rect class="cls-7" x="55.85" y="44.35" width="14.4" height="65.98"/><rect class="cls-8" x="57.68" y="64.66" width="1.6" height="22.89"/><rect class="cls-8" x="60.95" y="64.66" width="1.6" height="22.89"/><rect class="cls-8" x="63.71" y="64.66" width="1.6" height="22.89"/><rect class="cls-8" x="66.82" y="64.66" width="1.6" height="22.89"/><rect class="cls-9" x="56.34" y="64.13" width="1.68" height="23.95"/><rect class="cls-9" x="59.28" y="64.13" width="1.68" height="23.95"/><rect class="cls-9" x="62.21" y="64.13" width="1.68" height="23.95"/><rect class="cls-9" x="65.14" y="64.13" width="1.68" height="23.95"/><rect class="cls-9" x="68.08" y="64.13" width="1.68" height="23.95"/><path class="cls-4" d="M70.25,110.35H55.85V89s1.34,2.22,7.2,2.63,7.2,1.94,7.2,1.94Z"/><rect class="cls-10" x="55.85" y="44.35" width="14.4" height="65.98"/><rect class="cls-9" x="52.68" y="22.99" width="20.28" height="23.64"/><rect class="cls-9" x="51.21" y="17.82" width="23.23" height="6.64"/><rect class="cls-9" x="49.73" y="19.3" width="1.48" height="2.95"/><rect class="cls-9" x="74.44" y="19.3" width="1.48" height="2.95"/></g></g></svg>