<svg xmlns="http://www.w3.org/2000/svg" viewBox="0 0 127.91 127.91"><defs><style>.cls-1{fill:#66b6dd;}.cls-2,.cls-3,.cls-4{fill:#fff;}.cls-2,.cls-3,.cls-4,.cls-5{stroke:#000;}.cls-2,.cls-3,.cls-4,.cls-5,.cls-6{stroke-miterlimit:10;}.cls-2{stroke-width:0.54px;}.cls-3{stroke-width:0.65px;}.cls-5,.cls-6{fill:none;}.cls-5{stroke-width:0.9px;}.cls-6{stroke:#66b6dd;stroke-width:0.71px;}</style></defs><title>Iconen BRO Grondwatermeetnet (CC BY-ND 4.0)</title><g id="Samenstellingsonderzoek"><circle class="cls-1" cx="63.96" cy="63.96" r="62.6"/><circle class="cls-2" cx="86.36" cy="27.09" r="3.96"/><circle class="cls-2" cx="31.13" cy="100.64" r="3.96"/><circle class="cls-3" cx="36.54" cy="24.3" r="4.72"/><circle class="cls-4" cx="74.87" cy="18.08" r="7.28"/><circle class="cls-4" cx="45.23" cy="109.68" r="7.28"/><polygon class="cls-5" points="51.65 50.84 51.65 67.59 66.16 75.97 80.67 67.59 80.67 50.84 66.16 42.46 51.65 50.84"/><line class="cls-5" x1="80.67" y1="50.84" x2="95.67" y2="43.01"/><line class="cls-5" x1="21.66" y1="52.55" x2="36.66" y2="44.73"/><polygon points="35.76 73.34 37.73 77.15 51.99 67.39 35.76 73.34"/><polygon points="96.89 73.34 94.93 77.15 80.67 67.39 96.89 73.34"/><polygon points="35.76 45.3 37.73 41.49 51.99 51.25 35.76 45.3"/><polygon points="66.22 75.48 64.18 92.64 68.47 92.61 66.22 75.48"/><line class="cls-6" x1="62.22" y1="77.15" x2="70.44" y2="77.15"/><line class="cls-6" x1="62.2" y1="78.59" x2="70.42" y2="78.59"/><line class="cls-6" x1="62.18" y1="80.02" x2="70.4" y2="80.02"/><line class="cls-6" x1="62.17" y1="81.45" x2="70.39" y2="81.45"/><line class="cls-6" x1="62.15" y1="82.89" x2="70.37" y2="82.89"/><line class="cls-6" x1="62.13" y1="84.32" x2="70.35" y2="84.32"/><line class="cls-6" x1="62.11" y1="85.76" x2="70.33" y2="85.76"/><line class="cls-6" x1="62.1" y1="87.19" x2="70.32" y2="87.19"/><line class="cls-6" x1="62.08" y1="88.62" x2="70.3" y2="88.62"/><line class="cls-6" x1="62.06" y1="90.06" x2="70.28" y2="90.06"/><line class="cls-6" x1="62.04" y1="91.49" x2="70.27" y2="91.49"/><line class="cls-6" x1="35.66" y1="47.66" x2="39.42" y2="40.35"/><line class="cls-6" x1="36.92" y1="48.33" x2="40.69" y2="41.02"/><line class="cls-6" x1="38.19" y1="49" x2="41.96" y2="41.69"/><line class="cls-6" x1="39.46" y1="49.67" x2="43.22" y2="42.37"/><line class="cls-6" x1="40.72" y1="50.35" x2="44.49" y2="43.04"/><line class="cls-6" x1="41.99" y1="51.02" x2="45.76" y2="43.71"/><line class="cls-6" x1="43.26" y1="51.69" x2="47.02" y2="44.38"/><line class="cls-6" x1="44.52" y1="52.36" x2="48.29" y2="45.06"/><line class="cls-6" x1="45.79" y1="53.04" x2="49.56" y2="45.73"/><line class="cls-6" x1="47.06" y1="53.71" x2="50.82" y2="46.4"/><line class="cls-6" x1="48.32" y1="54.38" x2="52.09" y2="47.07"/><rect class="cls-1" x="62.04" y="38.98" width="8.68" height="8.68"/><path d="M70.15,39.48c0,2.42-1.46,3.89-3.62,3.89a3.44,3.44,0,0,1-3.47-3.75,3.58,3.58,0,0,1,3.59-3.87A3.44,3.44,0,0,1,70.15,39.48Zm-5.33.1c0,1.45.68,2.46,1.8,2.46s1.77-1.07,1.77-2.5-.64-2.46-1.78-2.46S64.82,38.15,64.82,39.58Z"/><path d="M103.77,39.48c0,2.42-1.46,3.89-3.62,3.89a3.44,3.44,0,0,1-3.47-3.75,3.58,3.58,0,0,1,3.59-3.87A3.44,3.44,0,0,1,103.77,39.48Zm-5.33.1c0,1.45.68,2.46,1.8,2.46S102,41,102,39.54s-.63-2.46-1.78-2.46S98.44,38.15,98.44,39.58Z"/><path d="M106.54,35.87v2.84h2.74V35.87h1.66v7.38h-1.66V40.16h-2.74v3.09h-1.68V35.87Z"/><path d="M105.4,78.1c0,2.42-1.47,3.89-3.62,3.89a3.45,3.45,0,0,1-3.47-3.76,3.57,3.57,0,0,1,3.59-3.86A3.44,3.44,0,0,1,105.4,78.1Zm-5.33.1c0,1.44.68,2.46,1.8,2.46s1.77-1.07,1.77-2.5-.64-2.47-1.79-2.47S100.07,76.77,100.07,78.2Z"/><path d="M108.16,74.49v2.84h2.75V74.49h1.66v7.37h-1.66V78.78h-2.75v3.08h-1.67V74.49Z"/><path d="M66,98.79c0,2.41-1.47,3.88-3.62,3.88a3.44,3.44,0,0,1-3.47-3.75,3.57,3.57,0,0,1,3.59-3.86A3.44,3.44,0,0,1,66,98.79Zm-5.33.1c0,1.44.68,2.46,1.79,2.46s1.78-1.08,1.78-2.51-.64-2.46-1.79-2.46S60.69,97.45,60.69,98.89Z"/><path d="M68.78,95.18V98h2.75V95.18h1.66v7.37H71.53V99.47H68.78v3.08H67.11V95.18Z"/><path d="M21.63,74.49v2.84h2.74V74.49H26v7.37H24.37V78.78H21.63v3.08H20V74.49Z"/><path d="M34.23,78.1c0,2.42-1.46,3.89-3.62,3.89a3.45,3.45,0,0,1-3.47-3.76,3.57,3.57,0,0,1,3.59-3.86A3.44,3.44,0,0,1,34.23,78.1Zm-5.32.1c0,1.44.67,2.46,1.79,2.46s1.77-1.07,1.77-2.5-.63-2.47-1.78-2.47S28.91,76.77,28.91,78.2Z"/><path d="M15.34,54.77V57.6h2.75V54.77h1.66v7.37H18.09V59.06H15.34v3.08H13.67V54.77Z"/><path d="M28,58.38c0,2.42-1.46,3.88-3.62,3.88a3.44,3.44,0,0,1-3.47-3.75,3.57,3.57,0,0,1,3.59-3.86A3.43,3.43,0,0,1,28,58.38Zm-5.32.1c0,1.44.67,2.46,1.79,2.46s1.77-1.07,1.77-2.51S25.56,56,24.41,56,22.63,57,22.63,58.48Z"/></g></svg>