<svg xmlns="http://www.w3.org/2000/svg" xmlns:xlink="http://www.w3.org/1999/xlink" viewBox="0 0 127.91 127.91"><defs><style>.cls-1,.cls-12,.cls-3{fill:none;}.cls-1,.cls-12,.cls-3,.cls-4,.cls-9{stroke:#000;stroke-miterlimit:10;}.cls-2{fill:#66b6dd;}.cls-3{stroke-width:1.67px;stroke-dasharray:2.02;}.cls-4,.cls-9{fill:#fff;}.cls-4{stroke-width:0.78px;}.cls-5{clip-path:url(#clip-path);}.cls-6{fill:#f8b819;}.cls-7{fill:#97c00e;}.cls-8{fill:#603813;}.cls-12,.cls-9{stroke-width:0.23px;}.cls-10{fill:#666;}.cls-11{fill:#1a1a1a;}.cls-13{clip-path:url(#clip-path-2);}.cls-14{clip-path:url(#clip-path-3);}.cls-15{clip-path:url(#clip-path-4);}.cls-16{clip-path:url(#clip-path-5);}</style><clipPath id="clip-path"><circle class="cls-1" cx="64.09" cy="64.85" r="11.41"/></clipPath><clipPath id="clip-path-2"><circle class="cls-1" cx="64.09" cy="106.47" r="11.41"/></clipPath><clipPath id="clip-path-3"><circle class="cls-1" cx="27.4" cy="85.66" r="11.41"/></clipPath><clipPath id="clip-path-4"><circle class="cls-1" cx="27.4" cy="42.71" r="11.41"/></clipPath><clipPath id="clip-path-5"><circle class="cls-1" cx="101.29" cy="42.71" r="11.41"/></clipPath></defs><title>Iconen BRO Grondwatermeetnet (CC BY-ND 4.0)</title><g id="Monitoringsnet"><circle class="cls-2" cx="63.96" cy="63.96" r="62.6"/><polyline class="cls-3" points="64.09 106.47 27.4 85.66 27.4 42.71"/><line class="cls-3" x1="27.4" y1="42.71" x2="64.35" y2="64.18"/><polyline class="cls-3" points="101.29 42.71 64.34 64.18 65.49 64.85"/><polyline class="cls-3" points="64.09 106.47 64.34 64.18 27.4 85.66"/><line class="cls-3" x1="27.4" y1="42.71" x2="101.29" y2="42.71"/><circle class="cls-4" cx="27.4" cy="42.71" r="10.41"/><line class="cls-3" x1="64.09" y1="106.47" x2="101.29" y2="42.71"/><circle class="cls-4" cx="27.4" cy="85.66" r="10.41"/><circle class="cls-4" cx="64.09" cy="106.47" r="10.41"/><circle class="cls-4" cx="101.29" cy="42.71" r="10.41"/><circle class="cls-4" cx="64.09" cy="64.85" r="10.41"/><g class="cls-5"><circle class="cls-2" cx="64.09" cy="64.85" r="11.41"/><rect class="cls-6" x="51.9" y="61.66" width="24.13" height="15.15"/><rect class="cls-7" x="51.9" y="61.66" width="24.13" height="0.81"/><rect class="cls-8" x="51.9" y="62.47" width="24.13" height="2.19"/><rect class="cls-9" x="62.61" y="61.28" width="2.62" height="12.02"/><rect class="cls-10" x="62.94" y="64.98" width="0.29" height="4.17"/><rect class="cls-10" x="63.54" y="64.98" width="0.29" height="4.17"/><rect class="cls-10" x="64.04" y="64.98" width="0.29" height="4.17"/><rect class="cls-10" x="64.61" y="64.98" width="0.29" height="4.17"/><rect class="cls-11" x="62.7" y="64.88" width="0.31" height="4.36"/><rect class="cls-11" x="63.23" y="64.88" width="0.31" height="4.36"/><rect class="cls-11" x="63.77" y="64.88" width="0.31" height="4.36"/><rect class="cls-11" x="64.3" y="64.88" width="0.31" height="4.36"/><rect class="cls-11" x="64.84" y="64.88" width="0.31" height="4.36"/><path class="cls-6" d="M65.23,73.3H62.61V69.41s.24.4,1.31.48,1.31.35,1.31.35Z"/><rect class="cls-12" x="62.61" y="61.28" width="2.62" height="12.02"/><rect class="cls-11" x="62.03" y="57.38" width="3.7" height="4.31"/><rect class="cls-11" x="61.76" y="56.44" width="4.23" height="1.21"/><rect class="cls-11" x="61.49" y="56.71" width="0.27" height="0.54"/><rect class="cls-11" x="66" y="56.71" width="0.27" height="0.54"/></g><circle class="cls-1" cx="64.09" cy="64.85" r="11.41"/><g class="cls-13"><circle class="cls-2" cx="64.09" cy="106.47" r="11.41"/><rect class="cls-6" x="51.9" y="103.28" width="24.13" height="15.15"/><rect class="cls-7" x="51.9" y="103.28" width="24.13" height="0.81"/><rect class="cls-8" x="51.9" y="104.09" width="24.13" height="2.19"/><rect class="cls-9" x="62.61" y="102.9" width="2.62" height="12.02"/><rect class="cls-10" x="62.94" y="106.6" width="0.29" height="4.17"/><rect class="cls-10" x="63.54" y="106.6" width="0.29" height="4.17"/><rect class="cls-10" x="64.04" y="106.6" width="0.29" height="4.17"/><rect class="cls-10" x="64.61" y="106.6" width="0.29" height="4.17"/><rect class="cls-11" x="62.7" y="106.5" width="0.31" height="4.36"/><rect class="cls-11" x="63.23" y="106.5" width="0.31" height="4.36"/><rect class="cls-11" x="63.77" y="106.5" width="0.31" height="4.36"/><rect class="cls-11" x="64.3" y="106.5" width="0.31" height="4.36"/><rect class="cls-11" x="64.84" y="106.5" width="0.31" height="4.36"/><path class="cls-6" d="M65.23,114.92H62.61V111s.24.4,1.31.48,1.31.35,1.31.35Z"/><rect class="cls-12" x="62.61" y="102.9" width="2.62" height="12.02"/><rect class="cls-11" x="62.03" y="99" width="3.7" height="4.31"/><rect class="cls-11" x="61.76" y="98.06" width="4.23" height="1.21"/><rect class="cls-11" x="61.49" y="98.33" width="0.27" height="0.54"/><rect class="cls-11" x="66" y="98.33" width="0.27" height="0.54"/></g><circle class="cls-1" cx="64.09" cy="106.47" r="11.41"/><g class="cls-14"><circle class="cls-2" cx="27.4" cy="85.66" r="11.41"/><rect class="cls-6" x="15.22" y="82.47" width="24.13" height="15.15"/><rect class="cls-7" x="15.22" y="82.47" width="24.13" height="0.81"/><rect class="cls-8" x="15.22" y="83.28" width="24.13" height="2.19"/><rect class="cls-9" x="25.93" y="82.09" width="2.62" height="12.02"/><rect class="cls-10" x="26.26" y="85.79" width="0.29" height="4.17"/><rect class="cls-10" x="26.86" y="85.79" width="0.29" height="4.17"/><rect class="cls-10" x="27.36" y="85.79" width="0.29" height="4.17"/><rect class="cls-10" x="27.93" y="85.79" width="0.29" height="4.17"/><rect class="cls-11" x="26.02" y="85.69" width="0.31" height="4.36"/><rect class="cls-11" x="26.55" y="85.69" width="0.31" height="4.36"/><rect class="cls-11" x="27.09" y="85.69" width="0.31" height="4.36"/><rect class="cls-11" x="27.62" y="85.69" width="0.31" height="4.36"/><rect class="cls-11" x="28.16" y="85.69" width="0.31" height="4.36"/><path class="cls-6" d="M28.55,94.11H25.93V90.22s.24.4,1.31.48,1.31.35,1.31.35Z"/><rect class="cls-12" x="25.93" y="82.09" width="2.62" height="12.02"/><rect class="cls-11" x="25.35" y="78.19" width="3.7" height="4.31"/><rect class="cls-11" x="25.08" y="77.25" width="4.23" height="1.21"/><rect class="cls-11" x="24.81" y="77.52" width="0.27" height="0.54"/><rect class="cls-11" x="29.32" y="77.52" width="0.27" height="0.54"/></g><circle class="cls-1" cx="27.4" cy="85.66" r="11.41"/><g class="cls-15"><circle class="cls-2" cx="27.4" cy="42.71" r="11.41"/><rect class="cls-6" x="15.22" y="39.52" width="24.13" height="15.15"/><rect class="cls-7" x="15.22" y="39.52" width="24.13" height="0.81"/><rect class="cls-8" x="15.22" y="40.33" width="24.13" height="2.19"/><rect class="cls-9" x="25.93" y="39.13" width="2.62" height="12.02"/><rect class="cls-10" x="26.26" y="42.84" width="0.29" height="4.17"/><rect class="cls-10" x="26.86" y="42.84" width="0.29" height="4.17"/><rect class="cls-10" x="27.36" y="42.84" width="0.29" height="4.17"/><rect class="cls-10" x="27.93" y="42.84" width="0.29" height="4.17"/><rect class="cls-11" x="26.02" y="42.74" width="0.31" height="4.36"/><rect class="cls-11" x="26.55" y="42.74" width="0.31" height="4.36"/><rect class="cls-11" x="27.09" y="42.74" width="0.31" height="4.36"/><rect class="cls-11" x="27.62" y="42.74" width="0.31" height="4.36"/><rect class="cls-11" x="28.16" y="42.74" width="0.31" height="4.36"/><path class="cls-6" d="M28.55,51.16H25.93v-3.9s.24.41,1.31.48,1.31.36,1.31.36Z"/><rect class="cls-12" x="25.93" y="39.13" width="2.62" height="12.02"/><rect class="cls-11" x="25.35" y="35.24" width="3.7" height="4.31"/><rect class="cls-11" x="25.08" y="34.3" width="4.23" height="1.21"/><rect class="cls-11" x="24.81" y="34.57" width="0.27" height="0.54"/><rect class="cls-11" x="29.32" y="34.57" width="0.27" height="0.54"/></g><circle class="cls-1" cx="27.4" cy="42.71" r="11.41"/><g class="cls-16"><circle class="cls-2" cx="101.29" cy="42.71" r="11.41"/><rect class="cls-6" x="89.1" y="39.52" width="24.13" height="15.15"/><rect class="cls-7" x="89.1" y="39.52" width="24.13" height="0.81"/><rect class="cls-8" x="89.1" y="40.33" width="24.13" height="2.19"/><rect class="cls-9" x="99.81" y="39.13" width="2.62" height="12.02"/><rect class="cls-10" x="100.14" y="42.84" width="0.29" height="4.17"/><rect class="cls-10" x="100.74" y="42.84" width="0.29" height="4.17"/><rect class="cls-10" x="101.24" y="42.84" width="0.29" height="4.17"/><rect class="cls-10" x="101.81" y="42.84" width="0.29" height="4.17"/><rect class="cls-11" x="99.9" y="42.74" width="0.31" height="4.36"/><rect class="cls-11" x="100.43" y="42.74" width="0.31" height="4.36"/><rect class="cls-11" x="100.97" y="42.74" width="0.31" height="4.36"/><rect class="cls-11" x="101.5" y="42.74" width="0.31" height="4.36"/><rect class="cls-11" x="102.04" y="42.74" width="0.31" height="4.36"/><path class="cls-6" d="M102.43,51.16H99.81v-3.9s.24.41,1.31.48,1.31.36,1.31.36Z"/><rect class="cls-12" x="99.81" y="39.13" width="2.62" height="12.02"/><rect class="cls-11" x="99.23" y="35.24" width="3.7" height="4.31"/><rect class="cls-11" x="98.96" y="34.3" width="4.23" height="1.21"/><rect class="cls-11" x="98.69" y="34.57" width="0.27" height="0.54"/><rect class="cls-11" x="103.2" y="34.57" width="0.27" height="0.54"/></g><circle class="cls-1" cx="101.29" cy="42.71" r="11.41"/></g></svg>