<svg id="Filter" xmlns="http://www.w3.org/2000/svg" xmlns:xlink="http://www.w3.org/1999/xlink" viewBox="0 0 127.91 127.91"><defs><style>.cls-1{fill:none;}.cls-2{clip-path:url(#clip-path);}.cls-3{fill:#f8b819;}.cls-4{fill:#66b6dd;}.cls-5{fill:#fff;stroke:#000;stroke-miterlimit:10;stroke-width:3px;}.cls-6{fill:#666;}.cls-7{fill:#1a1a1a;}</style><clipPath id="clip-path"><circle class="cls-1" cx="63.96" cy="63.96" r="62.6"/></clipPath></defs><title>Iconen BRO Grondwatermeetnet (CC BY-ND 4.0)</title><g class="cls-2"><circle class="cls-3" cx="63.96" cy="63.96" r="62.6"/><path class="cls-4" d="M116.09,122.54h0Z"/><path class="cls-4" d="M60.35,100.05C24.1,66.8-9.18,80.51-9.51,80.34l0,6c2.57-.73,21.76-4.69,55.76,26.5,36.26,33.24,69.53,19.54,69.87,19.7l0-6C113.54,127.27,94.36,131.24,60.35,100.05Z"/><path class="cls-4" d="M12.87,15.18h0Z"/><path class="cls-4" d="M82.73,23.88C46.48-9.36,13.2,4.34,12.87,4.18l0,6c2.57-.72,21.76-4.68,55.77,26.5,36.25,33.25,69.52,19.54,69.86,19.71l0-6C135.92,51.11,116.74,55.07,82.73,23.88Z"/><rect class="cls-5" x="37.19" y="-0.78" width="54.73" height="129.7"/><rect class="cls-6" x="79.02" y="18.26" width="6.4" height="91.39" transform="translate(164.43 127.91) rotate(180)"/><rect class="cls-6" x="65.93" y="18.26" width="6.4" height="91.39" transform="translate(138.25 127.91) rotate(180)"/><rect class="cls-6" x="54.9" y="18.26" width="6.4" height="91.39" transform="translate(116.2 127.91) rotate(180)"/><rect class="cls-6" x="42.5" y="18.26" width="6.4" height="91.39" transform="translate(91.4 127.91) rotate(180)"/><rect class="cls-7" x="37.19" y="16.15" width="6.69" height="95.61" transform="translate(81.07 127.91) rotate(180)"/><path class="cls-4" d="M126.35,95h0S126.36,95,126.35,95Z"/><rect class="cls-7" x="84.04" y="16.15" width="6.69" height="95.61" transform="translate(174.76 127.91) rotate(180)"/><path class="cls-4" d="M70.62,62.47C34.36,29.22,1.09,42.93.76,42.76l0,6C3.3,48,22.48,44.07,56.49,75.25,92.74,108.5,126,94.8,126.35,95l0-6C123.81,89.69,104.62,93.65,70.62,62.47Z"/><rect class="cls-7" x="72.32" y="16.15" width="6.69" height="95.61" transform="translate(151.34 127.91) rotate(180)"/><rect class="cls-7" x="48.9" y="16.15" width="6.69" height="95.61" transform="translate(104.49 127.91) rotate(180)"/><path class="cls-4" d="M.76,42.76h0S.75,42.76.76,42.76Z"/><rect class="cls-7" x="60.61" y="16.15" width="6.69" height="95.61" transform="translate(127.91 127.91) rotate(180)"/></g></svg>