<svg xmlns="http://www.w3.org/2000/svg" viewBox="0 0 127.91 127.91"><defs><style>.cls-1{fill:#f8b819;}.cls-2{fill:#66b6dd;}.cls-3{fill:#fff;}.cls-3,.cls-4,.cls-5{stroke:#000;stroke-miterlimit:10;}.cls-3,.cls-4{stroke-width:3px;}.cls-4,.cls-5{fill:none;}.cls-5{stroke-width:2.47px;}</style></defs><title>Iconen BRO Grondwatermeetnet (CC BY-ND 4.0)</title><g id="Grondwaterstand"><path class="cls-1" d="M66.25,72.8c23.83,21.86,40.37,26.44,49,27A62.6,62.6,0,1,0,2.6,51.52C13.92,49.32,39.26,48.05,66.25,72.8Z"/><path class="cls-2" d="M52.12,85.59C26.85,62.41,9.77,58.65,1.6,58.54c-.15,1.79-.24,3.59-.24,5.42A62.59,62.59,0,0,0,108.63,107.8C95.55,108.72,74.4,106,52.12,85.59Z"/><path class="cls-2" d="M66.25,72.8C39.26,48.05,13.92,49.32,2.6,51.52a62.43,62.43,0,0,0-1,7c8.17.11,25.25,3.87,50.52,27.05C74.4,106,95.55,108.72,108.63,107.8a63.8,63.8,0,0,0,6.65-8C106.62,99.24,90.08,94.66,66.25,72.8Z"/><rect class="cls-3" x="47.45" y="13.4" width="33.02" height="101.11"/><line class="cls-4" x1="80.47" y1="21.19" x2="65.49" y2="21.19"/><line class="cls-5" x1="80.47" y1="28.97" x2="70.34" y2="28.97"/><line class="cls-5" x1="80.47" y1="36.74" x2="70.34" y2="36.74"/><line class="cls-5" x1="80.47" y1="44.52" x2="70.34" y2="44.52"/><line class="cls-4" x1="80.47" y1="52.29" x2="65.49" y2="52.29"/><line class="cls-5" x1="80.47" y1="67.85" x2="70.34" y2="67.85"/><line class="cls-5" x1="80.47" y1="60.07" x2="70.34" y2="60.07"/><line class="cls-5" x1="80.47" y1="75.62" x2="70.34" y2="75.62"/><line class="cls-4" x1="80.47" y1="83.4" x2="65.49" y2="83.4"/><line class="cls-5" x1="80.47" y1="91.17" x2="70.34" y2="91.17"/><line class="cls-5" x1="80.47" y1="98.95" x2="70.34" y2="98.95"/><line class="cls-5" x1="80.47" y1="106.72" x2="70.34" y2="106.72"/></g></svg>